# xmcd
#
# Track frame offsets:
#	150
#	12343
#	24887
#	38125
#	50777
#	61456
#	73777
#	86027
#	98865
#	110859
#	125658
#	140187
#	151170
#	173500
#	197286
#	212802
#	227746
#	240903
#	254930
#	266816
#	282697
#	296873
#	308773
#	323901
#	338829
#
# Disc length: 4756 seconds
#
# Revision: 1
# Processed by: cddbd v1.5.2PL0 Copyright (c) Steve Scherf et al.
# Submitted via: audiograbber 1.83.01
#
DISCID=84129219
DTITLE=Dolly Parton - Dolly (Box Set)(CD 3)
DYEAR=2009
DGENRE=Country
TTITLE0=Jolene
TTITLE1=Early Morning Breeze
TTITLE2=I Will Always Love You
TTITLE3=Please Don't Stop Loving Me (With Porter Wagoner)
TTITLE4=Love Is Like A Butterfly
TTITLE5=Sacred Memories
TTITLE6=The Bargain Store
TTITLE7=On My Mind Again
TTITLE8=Kentucky Gambler
TTITLE9=The Seeker
TTITLE10=We Used To
TTITLE11=All I Can Do
TTITLE12=Light Of A Clear Blue Morning
TTITLE13=You Are
TTITLE14=Applejack
TTITLE15=It's All Wrong, But It's All Right
TTITLE16=Here You Come Again
TTITLE17=Two Doors Down
TTITLE18=Me And Little Andy
TTITLE19=Heartbreaker
TTITLE20=I Really Got The Feeling
TTITLE21=Baby I'm Burnin'
TTITLE22=You're The Only One
TTITLE23=Sweet Summer Lovin'
TTITLE24=Starting Over Again
EXTD=
EXTT0=
EXTT1=
EXTT2=
EXTT3=
EXTT4=
EXTT5=
EXTT6=
EXTT7=
EXTT8=
EXTT9=
EXTT10=
EXTT11=
EXTT12=
EXTT13=
EXTT14=
EXTT15=
EXTT16=
EXTT17=
EXTT18=
EXTT19=
EXTT20=
EXTT21=
EXTT22=
EXTT23=
EXTT24=
PLAYORDER=
